<svg xmlns="http://www.w3.org/2000/svg" xmlns:xlink="http://www.w3.org/1999/xlink" width="61" height="61" viewBox="0 0 61 61">
  <defs>
    <clipPath id="clip-path">
      <circle id="Ellipse_52" data-name="Ellipse 52" cx="30.5" cy="30.5" r="30.5" transform="translate(-18503 -9057)" fill="none" stroke="#707070" stroke-width="1"/>
    </clipPath>
  </defs>
  <g id="Mask_Group_127" data-name="Mask Group 127" transform="translate(18503 9057)" clip-path="url(#clip-path)">
    <path id="Vector_7_" data-name="Vector (7)" d="M3.263,5H24.128L20.882,8.249H3.263a.016.016,0,0,0-.016.016V33.352a.016.016,0,0,0,.016.016H28.349a.016.016,0,0,0,.016-.016V17.48l3.246-3.246V33.352a3.272,3.272,0,0,1-3.263,3.263H3.263A3.272,3.272,0,0,1,0,33.352V8.265A3.272,3.272,0,0,1,3.263,5ZM16.547,20.941a7.478,7.478,0,0,0-3.634-2.073l-.125.125-1.179,6.885L18.494,24.7l.125-.125A7.478,7.478,0,0,0,16.547,20.941ZM32.576.207a.709.709,0,0,0-1,0L29.234,2.548,34.94,8.254l2.341-2.341a.709.709,0,0,0,0-1Zm1.039,9.373L27.908,3.873,14.421,17.361a10.041,10.041,0,0,1,5.706,5.706Z" transform="translate(-18490.146 -9044.807)" fill="#fff" fill-rule="evenodd"/>
  </g>
</svg>
