<svg xmlns="http://www.w3.org/2000/svg" xmlns:xlink="http://www.w3.org/1999/xlink" width="61" height="61" viewBox="0 0 61 61">
  <defs>
    <clipPath id="clip-path">
      <circle id="Ellipse_49" data-name="Ellipse 49" cx="30.5" cy="30.5" r="30.5" transform="translate(-18503 -9057)" fill="none" stroke="#707070" stroke-width="1"/>
    </clipPath>
  </defs>
  <g id="Mask_Group_120" data-name="Mask Group 120" transform="translate(18503 9057)" clip-path="url(#clip-path)">
    <g id="STATIONERY_AND_OFFICE" data-name="STATIONERY AND OFFICE" transform="translate(-18493.832 -9047.834)">
      <path id="Path_22197" data-name="Path 22197" d="M20.261,25.709a5.45,5.45,0,1,0-5.45-5.45A5.45,5.45,0,0,0,20.261,25.709Z" transform="translate(1.071 1.071)" fill="#fff"/>
      <path id="Path_22198" data-name="Path 22198" d="M40.154,18.581a6.061,6.061,0,0,0-3.6-3.493c-3.124-1.136-6.783-.828-10.678.8a7.764,7.764,0,0,1,.175,8.533,7.6,7.6,0,0,1,5.04,6.568s.017.184.013.583a2.377,2.377,0,0,0,.4,1.343,2.25,2.25,0,0,0,3.055.694l.044-.027C38.782,30.551,42.281,24.054,40.154,18.581Z" transform="translate(1.871 1.042)" fill="#fff"/>
      <path id="Path_22199" data-name="Path 22199" d="M13.548,20.815a7.739,7.739,0,0,1,1.187-4.128A7.6,7.6,0,0,1,9.7,10.123s-.017-.184-.013-.583a2.378,2.378,0,0,0-.4-1.343A2.25,2.25,0,0,0,6.232,7.5l-.044.027c-4.174,3.028-7.673,9.524-5.547,15a6.064,6.064,0,0,0,3.6,3.493c3.124,1.137,6.784.828,10.679-.8A7.734,7.734,0,0,1,13.548,20.815Z" transform="translate(0 0.519)" fill="#fff"/>
      <path id="Path_22200" data-name="Path 22200" d="M33.6,6.232l-.026-.044c-3.028-4.174-9.524-7.673-15-5.547a6.06,6.06,0,0,0-3.492,3.6c-1.137,3.123-.828,6.782.8,10.675a7.767,7.767,0,0,1,8.537-.18A7.6,7.6,0,0,1,30.984,9.7s.184-.017.583-.013a2.379,2.379,0,0,0,1.343-.4A2.25,2.25,0,0,0,33.6,6.232Z" transform="translate(1.042 0)" fill="#fff"/>
      <path id="Path_22201" data-name="Path 22201" d="M20.815,27.242a7.737,7.737,0,0,1-4.129-1.188,7.6,7.6,0,0,1-6.568,5.039s-.184.017-.583.013a2.376,2.376,0,0,0-1.342.4A2.25,2.25,0,0,0,7.5,34.564l.026.044c3.028,4.174,9.524,7.673,15,5.547a6.064,6.064,0,0,0,3.493-3.6c1.136-3.125.828-6.786-.8-10.682A7.74,7.74,0,0,1,20.815,27.242Z" transform="translate(0.519 1.871)" fill="#fff"/>
    </g>
  </g>
</svg>
