<svg width="290" height="158" viewBox="0 0 290 158" fill="none" xmlns="http://www.w3.org/2000/svg">
<g clip-path="url(#clip0_5288_240)">
<g clip-path="url(#clip1_5288_240)">
<path d="M145 140.038C99.0952 140.038 63.4033 137.504 46.2162 135.99C39.8236 135.426 34.1962 132.138 30.7841 126.962C27.6021 122.136 26.8023 116.246 28.5803 110.799L33.5747 95.5465C28.3847 79.9311 23.2751 64.7935 18.39 50.537C16.1345 43.9499 17.0839 36.8274 20.9908 30.9889C25.174 24.7416 32.3319 20.7283 40.14 20.2562C74.8882 18.1546 110.166 17.0894 144.995 17.0894C179.823 17.0894 215.101 18.1546 249.849 20.2562C257.657 20.7283 264.815 24.7416 268.998 30.9889C272.905 36.8274 273.855 43.9557 271.599 50.537C266.714 64.805 261.605 79.9426 256.42 95.5465L261.415 110.799C263.198 116.246 262.393 122.136 259.211 126.962C255.799 132.138 250.171 135.426 243.779 135.99C226.592 137.504 190.9 140.038 144.995 140.038H145Z" fill="#E54B21"/>
<path d="M145 137.925C99.1758 137.925 63.553 135.391 46.4004 133.883C40.6522 133.376 35.6002 130.428 32.5449 125.799C29.7197 121.515 29.0062 116.287 30.5885 111.461L35.8016 95.5408C30.531 79.6836 25.3524 64.3273 20.3925 49.8519C18.3556 43.8983 19.2129 37.4494 22.7516 32.1637C26.5665 26.4633 33.1202 22.7956 40.2724 22.3637C74.9804 20.2621 110.218 19.2026 145 19.2026C179.783 19.2026 215.02 20.2678 249.728 22.3637C256.881 22.7956 263.434 26.4576 267.249 32.1637C270.788 37.4494 271.645 43.8983 269.608 49.8519C264.654 64.3273 259.47 79.6836 254.199 95.5408L259.412 111.461C260.995 116.292 260.281 121.52 257.456 125.799C254.401 130.434 249.349 133.382 243.6 133.883C226.448 135.391 190.831 137.925 145 137.925Z" fill="#001D34"/>
<path d="M29.5468 35.7393C32.1246 32.2845 36.325 30.085 40.9282 29.8029C75.4865 27.7128 110.568 26.6533 145.207 26.6533C179.846 26.6533 214.928 27.7128 249.487 29.8029C254.337 30.0965 258.739 32.5264 261.271 36.3093C263.503 39.6431 264.05 43.6967 262.772 47.4336C257.634 62.4329 252.266 78.365 246.805 94.798L246.989 95.5235H43.4254C38.0339 79.2863 32.6482 63.2793 27.2625 47.566C25.8355 43.403 26.6468 39.1825 28.9714 35.8544L29.5468 35.7393Z" fill="#FCE7C2"/>
<path d="M30.1454 36.9833C32.47 33.5113 36.5265 31.2829 40.9974 31.0123C75.5327 28.9222 110.592 27.8628 145.202 27.8628C179.812 27.8628 214.871 28.9222 249.406 31.0123C253.883 31.2829 257.939 33.517 260.258 36.9833C262.307 40.0465 262.79 43.6221 261.622 47.0423C256.541 61.8747 251.23 77.6398 245.821 93.9174L246.984 95.5238C252.375 79.2865 257.761 63.2796 263.147 47.5663C266.11 38.9064 259.424 30.0047 249.504 29.4059C180.048 25.2026 110.361 25.2026 40.8996 29.4059C35.7555 29.7168 31.4746 32.2675 28.9658 35.8547L30.1396 36.9833H30.1454Z" fill="url(#paint0_linear_5288_240)"/>
<path d="M244.665 41.3934H243.618V40.6909H246.477V41.3934H245.43V44.1457H244.671V41.3934H244.665Z" fill="#E54B21"/>
<path d="M247.059 40.6968H247.876L248.785 42.1593L249.694 40.6968H250.511V44.1515H249.757V41.9002L248.785 43.3742H248.768L247.807 41.9117V44.1515H247.064V40.6968H247.059Z" fill="#E54B21"/>
<path d="M239.561 68.7087C236.022 73.8562 231.459 77.0807 228.847 77.0807C227.754 77.0807 226.954 76.407 227.708 74.3802L231.718 63.6245C233.606 58.5633 232.133 54.4349 226.994 54.4349C222.621 54.4349 218.116 57.2217 214.088 61.3098L216.165 55.2813H204.957L199.151 72.1519C195.555 75.6239 191.159 77.6737 187.033 77.6737C184.179 77.6737 182.205 76.7237 181.078 75.2324C189.363 73.3956 195.497 68.9275 197.195 64.0102C198.88 59.116 195.716 54.4349 189.145 54.4349C179.702 54.4349 172.614 60.2964 169.806 68.225C169.069 70.3094 168.718 72.3304 168.735 74.2132C165.45 76.7179 162.377 77.668 159.627 77.668C158.137 77.668 157.204 76.7525 156.721 75.2209C174.817 61.1543 183.638 37.3569 169.742 37.3569C157.331 37.3569 145.357 58.1084 144.672 72.3995C141.128 75.716 136.847 77.668 132.825 77.668C129.971 77.668 127.997 76.7179 126.87 75.2266C135.155 73.3899 141.289 68.9217 142.986 64.0045C144.672 59.1103 141.513 54.4291 134.937 54.4291C125.494 54.4291 118.405 60.2906 115.598 68.2193C115.062 69.7278 114.734 71.2019 114.596 72.6125C111.955 75.3994 109.308 77.0692 107.502 77.0692C106.408 77.0692 105.563 76.3955 106.316 74.3687L110.327 63.6129C112.214 58.5518 110.741 54.4233 105.603 54.4233C101.207 54.4233 96.7648 57.4808 92.6277 61.3731L100.614 38.1976H89.4055L73.3634 84.7905H84.5721L88.9854 71.9677C93.1455 64.373 96.3908 62.5247 97.6797 62.5247C98.6924 62.5247 99.3196 63.3251 98.5658 65.3518L94.8948 75.1806C92.409 81.8425 94.515 85.6369 100.039 85.6369C105.563 85.6369 110.643 82.3261 115.08 77.9041C116.512 82.5104 120.661 85.6369 127.048 85.6369C133.815 85.6369 140.063 82.2743 145.029 77.7371C146.019 82.4585 148.959 85.6369 154.506 85.6369C160.852 85.6369 166.117 82.8616 170.042 79.712C171.912 83.3107 175.755 85.6369 181.268 85.6369C186.78 85.6369 192.004 83.3798 196.429 80.069L194.807 84.7905H206.015L210.498 71.7604C214.606 64.3384 217.8 62.5189 219.083 62.5189C220.095 62.5189 220.723 63.3193 219.969 65.3461L216.298 75.1748C213.812 81.8367 215.918 85.6311 221.442 85.6311C229.365 85.6311 237.202 78.2956 242.306 70.8679L239.578 68.6914L239.561 68.7087ZM126.237 68.4381C127.543 64.6436 130.748 61.0161 133.527 61.0161C136.997 61.0161 135.915 68.0293 125.788 70.2288C125.874 69.6415 126.024 69.0426 126.237 68.4381ZM168.264 43.9382C170.191 43.9382 168.902 52.932 156.416 69.4975C157.44 59.5133 164.121 43.9382 168.264 43.9382ZM180.456 68.4381C181.762 64.6436 184.967 61.0161 187.747 61.0161C191.222 61.0161 190.134 68.0293 180.007 70.2288C180.1 69.6415 180.243 69.0426 180.456 68.4381ZM74.5602 49.3103L62.3618 84.7963H49.9563L62.1489 49.3103H45.2898L47.8273 41.9057H85.1821L82.633 49.3103H74.5602ZM99.7051 49.3103L102.254 41.9057H155.323C153.464 43.8403 151.681 46.1205 150.052 48.6597C149.914 48.8727 149.776 49.0915 149.644 49.3103H99.7051ZM178.638 49.3103C179.34 46.5465 179.507 44.0419 179.11 41.9057H239.118L236.569 49.3103H178.638Z" fill="white"/>
<path d="M240.464 67.35C236.926 72.4976 232.668 75.8717 230.055 75.8717C228.962 75.8717 228.162 75.198 228.916 73.1712L232.927 62.4155C234.814 57.3543 233.341 53.2259 228.203 53.2259C223.83 53.2259 219.255 55.7651 215.296 60.1008L217.374 54.0723H206.165L200.359 70.9429C196.763 74.4149 192.367 76.4647 188.241 76.4647C185.387 76.4647 183.414 75.5147 182.286 74.0234C190.572 72.1866 196.705 67.7185 198.403 62.8013C200.089 57.907 196.924 53.2259 190.353 53.2259C180.911 53.2259 173.822 59.0874 171.014 67.016C170.277 69.1004 169.926 71.1214 169.944 73.0043C166.658 75.5089 163.586 76.459 160.835 76.459C159.345 76.459 158.413 75.5435 157.929 74.0119C176.026 59.9453 184.846 36.1479 170.951 36.1479C158.539 36.1479 146.565 56.8994 145.881 71.1905C142.336 74.5071 138.055 76.459 134.033 76.459C131.179 76.459 129.206 75.5089 128.078 74.0176C136.364 72.1809 142.497 67.7127 144.195 62.7955C145.881 57.9013 142.722 53.2201 136.145 53.2201C126.703 53.2201 119.614 59.0817 116.806 67.0103C116.271 68.5188 115.943 69.9929 115.805 71.4036C113.164 74.1904 110.517 75.8602 108.71 75.8602C107.617 75.8602 106.771 75.1865 107.525 73.1597L111.535 62.404C113.422 57.3428 111.949 53.2144 106.811 53.2144C102.415 53.2144 97.8119 55.7824 93.8359 60.1641L101.822 36.9886H90.6137L74.5717 83.5815H85.7804L90.1937 70.7587C94.3538 63.164 97.599 61.3157 98.8879 61.3157C99.9006 61.3157 100.528 62.1161 99.774 64.1428L96.103 73.9716C93.6173 80.6335 95.7233 84.4279 101.247 84.4279C106.771 84.4279 111.852 81.1171 116.288 76.6951C117.721 81.3014 121.869 84.4279 128.256 84.4279C135.023 84.4279 141.272 81.0653 146.237 76.5281C147.227 81.2496 150.167 84.4279 155.714 84.4279C162.061 84.4279 167.326 81.6584 171.25 78.503C173.12 82.1017 176.964 84.4279 182.476 84.4279C187.988 84.4279 193.213 82.1708 197.638 78.86L196.015 83.5815H207.224L211.706 70.5514C215.814 63.1295 219.008 61.31 220.291 61.31C221.304 61.31 221.931 62.1103 221.177 64.1371L217.506 73.9658C215.02 80.6277 217.126 84.4222 222.65 84.4222C230.573 84.4222 238.41 77.0866 243.514 69.6589L240.482 67.3385L240.464 67.35ZM127.451 67.2233C128.757 63.4289 131.962 59.8014 134.741 59.8014C138.211 59.8014 137.129 66.8145 127.002 69.014C127.088 68.4267 127.238 67.8279 127.451 67.2233ZM169.478 42.7292C171.405 42.7292 170.116 51.7231 157.63 68.2885C158.649 58.3043 165.335 42.7292 169.478 42.7292ZM181.665 67.2233C182.971 63.4289 186.176 59.8014 188.955 59.8014C192.43 59.8014 191.343 66.8145 181.216 69.014C181.308 68.4267 181.452 67.8279 181.665 67.2233ZM75.7685 48.0956L63.5701 83.5815H51.1645L63.3572 48.0956H46.498L49.0355 40.6909H86.3903L83.8413 48.0956H75.7685ZM100.913 48.0956L103.462 40.6909H156.531C154.673 42.6256 152.889 44.9057 151.261 47.4449C151.122 47.6637 150.984 47.8768 150.852 48.0956H100.913ZM179.852 48.0956C180.554 45.3318 180.721 42.8271 180.324 40.6909H240.332L237.783 48.0956H179.852Z" fill="url(#paint1_linear_5288_240)"/>
<path d="M49.2311 108.824H52.413C55.2095 108.824 56.6537 110.454 56.6537 113.592C56.6537 116.73 55.2095 118.336 52.413 118.336H52.1829V124.641H49.2253V108.824H49.2311ZM52.4418 115.676C53.2416 115.676 53.6099 115.037 53.6099 113.592C53.6099 112.147 53.2416 111.484 52.4418 111.484H52.1886V115.682H52.4418V115.676Z" fill="#FCE7C2"/>
<path d="M59.6572 108.824H62.6148V121.981H65.8888V124.641H59.6572V108.824Z" fill="#FCE7C2"/>
<path d="M68.8232 120.697V108.824H71.7808V120.519C71.7808 121.849 71.9189 122.217 72.4425 122.217C72.9661 122.217 73.1272 121.849 73.1272 120.519V108.824H75.9697V120.697C75.9697 123.311 74.6405 124.871 72.3965 124.871C70.1524 124.871 68.8232 123.311 68.8232 120.697Z" fill="#FCE7C2"/>
<path d="M79.2208 108.824H83.2314L84.3764 117.444H84.4224L85.5445 108.824H89.7391V124.641H86.8966V112.63H86.8506L85.2452 124.641H83.4327L81.8504 112.63H81.8044V124.641H79.2151V108.824H79.2208Z" fill="#FCE7C2"/>
<path d="M93.0361 108.824H96.2181C99.0145 108.824 100.344 110.154 100.344 112.861C100.344 114.628 99.7913 115.705 98.5139 116.229V116.298C99.9351 116.828 100.574 118.066 100.574 120.081C100.574 123.11 99.1526 124.641 96.3101 124.641H93.0361V108.824ZM96.0167 115.106C96.8855 115.106 97.3228 114.599 97.3228 113.206C97.3228 111.945 97.0006 111.484 96.1548 111.484H95.9937V115.106H96.0167ZM96.2468 121.981C97.2078 121.981 97.53 121.451 97.53 119.874C97.53 118.296 97.1847 117.743 96.0167 117.743H95.9937V121.987H96.2468V121.981Z" fill="#FCE7C2"/>
<path d="M103.577 108.824H106.535V124.641H103.577V108.824Z" fill="#FCE7C2"/>
<path d="M109.832 108.824H112.582L114.596 116.736H114.642V108.824H117.231V124.641H114.665L112.467 115.952H112.421V124.641H109.832V108.824Z" fill="#FCE7C2"/>
<path d="M120.327 116.736C120.327 110.661 121.265 108.6 124.061 108.6C126.259 108.6 127.289 109.976 127.566 113.367H124.746C124.677 111.669 124.516 111.26 124.061 111.26C123.509 111.26 123.377 112.29 123.377 116.741C123.377 121.9 123.63 122.223 124.154 122.223C124.729 122.223 124.838 121.123 124.838 119.424V118.117H124.061V115.48H127.796V124.653H125.782L125.506 123.115H125.414C125.114 124.146 124.522 124.883 123.4 124.883C121.156 124.883 120.327 122.108 120.327 116.747V116.736Z" fill="#FCE7C2"/>
<path d="M131.346 117.835C131.346 116.39 132.399 115.313 133.843 115.313C135.287 115.313 136.34 116.39 136.34 117.835C136.34 119.28 135.287 120.334 133.843 120.334C132.399 120.334 131.346 119.28 131.346 117.835Z" fill="#E54B21"/>
<path d="M139.89 108.824H142.848V114.922H144.338V108.824H147.296V124.641H144.338V117.559H142.848V124.641H139.89V108.824Z" fill="#FCE7C2"/>
<path d="M150.593 108.824H156.94V111.484H153.551V114.922H156.485V117.559H153.551V121.981H156.94V124.641H150.593V108.824Z" fill="#FCE7C2"/>
<path d="M161.974 108.824H165.41L167.746 124.641H164.811L164.512 122.073H162.676L162.377 124.641H159.604L161.963 108.824H161.974ZM164.247 119.712L163.626 112.97H163.557L162.964 119.712H164.247Z" fill="#FCE7C2"/>
<path d="M171.417 111.484H169.219V108.824H176.572V111.484H174.374V124.641H171.417V111.484Z" fill="#FCE7C2"/>
<path d="M179.576 108.824H182.533V124.641H179.576V108.824Z" fill="#FCE7C2"/>
<path d="M185.83 108.824H188.581L190.595 116.736H190.641V108.824H193.23V124.641H190.664L188.466 115.952H188.42V124.641H185.83V108.824Z" fill="#FCE7C2"/>
<path d="M196.32 116.736C196.32 110.661 197.258 108.6 200.054 108.6C202.252 108.6 203.282 109.976 203.558 113.367H200.739C200.67 111.669 200.509 111.26 200.054 111.26C199.502 111.26 199.369 112.29 199.369 116.741C199.369 121.9 199.623 122.223 200.146 122.223C200.722 122.223 200.831 121.123 200.831 119.424V118.117H200.054V115.48H203.788V124.653H201.775L201.498 123.115H201.406C201.107 124.146 200.514 124.883 199.392 124.883C197.148 124.883 196.32 122.108 196.32 116.747V116.736Z" fill="#FCE7C2"/>
<path d="M207.172 117.835C207.172 116.39 208.225 115.313 209.669 115.313C211.113 115.313 212.166 116.39 212.166 117.835C212.166 119.28 211.113 120.334 209.669 120.334C208.225 120.334 207.172 119.28 207.172 117.835Z" fill="#E54B21"/>
<path d="M217.903 108.824H221.338L223.674 124.641H220.74L220.44 122.073H218.605L218.306 124.641H215.532L217.891 108.824H217.903ZM220.17 119.712L219.549 112.97H219.479L218.887 119.712H220.17Z" fill="#FCE7C2"/>
<path d="M226.632 108.824H229.589V124.641H226.632V108.824Z" fill="#FCE7C2"/>
<path d="M237.766 124.641L236.414 118.106H235.838V124.641H232.881V108.824H236.063C238.836 108.824 240.303 110.431 240.303 113.477C240.303 115.129 239.866 116.367 239.02 117.121L240.764 124.641H237.76H237.766ZM235.844 115.452H236.097C236.874 115.452 237.265 114.812 237.265 113.482C237.265 112.152 236.874 111.49 236.097 111.49H235.844V115.457V115.452Z" fill="#FCE7C2"/>
</g>
</g>
<defs>
<linearGradient id="paint0_linear_5288_240" x1="244.59" y1="106.844" x2="45.301" y2="-36.042" gradientUnits="userSpaceOnUse">
<stop offset="0.02" stop-color="#FCE7C2"/>
<stop offset="0.06" stop-color="#FDF1DC"/>
<stop offset="0.1" stop-color="#FEFBF5"/>
<stop offset="0.13" stop-color="white"/>
<stop offset="0.48" stop-color="#FEFEFD"/>
<stop offset="0.61" stop-color="#FEFBF6"/>
<stop offset="0.7" stop-color="#FDF6EA"/>
<stop offset="0.77" stop-color="#FDF0D9"/>
<stop offset="0.83" stop-color="#FCE7C4"/>
<stop offset="0.84" stop-color="#FCE7C2"/>
</linearGradient>
<linearGradient id="paint1_linear_5288_240" x1="145" y1="84.4913" x2="145" y2="39.977" gradientUnits="userSpaceOnUse">
<stop offset="0.28" stop-color="#E54B21"/>
<stop offset="0.47" stop-color="#EA7041"/>
<stop offset="0.67" stop-color="#E54B21"/>
</linearGradient>
<clipPath id="clip0_5288_240">
<rect width="290.001" height="157.127" fill="white"/>
</clipPath>
<clipPath id="clip1_5288_240">
<rect width="290" height="157.127" fill="white" transform="translate(0.000244141)"/>
</clipPath>
</defs>
</svg>
