<svg xmlns="http://www.w3.org/2000/svg" xmlns:xlink="http://www.w3.org/1999/xlink" width="61" height="61" viewBox="0 0 61 61">
  <defs>
    <clipPath id="clip-path">
      <circle id="Ellipse_51" data-name="Ellipse 51" cx="30.5" cy="30.5" r="30.5" transform="translate(-18503 -9057)" fill="none" stroke="#707070" stroke-width="1"/>
    </clipPath>
  </defs>
  <g id="Mask_Group_126" data-name="Mask Group 126" transform="translate(18503 9057)" clip-path="url(#clip-path)">
    <path id="Vector_6_" data-name="Vector (6)" d="M23.976,42.667H16.985a1.9,1.9,0,0,1-1.891-1.676L14.624,37.1A16.8,16.8,0,0,1,9.76,34.287l-3.61,1.54a1.9,1.9,0,0,1-2.4-.8l-3.5-6.054A1.9,1.9,0,0,1,.764,26.5L3.9,24.142a16.968,16.968,0,0,1,0-5.618L.764,16.17a1.9,1.9,0,0,1-.506-2.476l3.5-6.054a1.9,1.9,0,0,1,2.4-.8l3.61,1.54a16.8,16.8,0,0,1,4.864-2.812l.471-3.892A1.9,1.9,0,0,1,16.985,0h6.991a1.9,1.9,0,0,1,1.891,1.676l.471,3.892A16.8,16.8,0,0,1,31.2,8.38l3.61-1.54a1.9,1.9,0,0,1,2.4.8l3.5,6.054a1.9,1.9,0,0,1-.506,2.476L37.06,18.525a16.971,16.971,0,0,1,0,5.618L40.2,26.5a1.9,1.9,0,0,1,.506,2.476l-3.5,6.054a1.9,1.9,0,0,1-2.4.8l-3.61-1.54A16.8,16.8,0,0,1,26.338,37.1l-.471,3.892A1.9,1.9,0,0,1,23.976,42.667Zm-3.5-31.334a10,10,0,1,0,10,10A10,10,0,0,0,20.48,11.333Z" transform="translate(-18492.98 -9047.834)" fill="#fff" fill-rule="evenodd"/>
  </g>
</svg>
