<svg width="24" height="24" viewBox="0 0 24 24" fill="none" xmlns="http://www.w3.org/2000/svg">
<path fill-rule="evenodd" clip-rule="evenodd" d="M7.60125 8.67747C8.94043 11.346 12.654 15.0596 15.3226 16.3988L17.1825 14.6236C17.7345 14.0968 18.6083 14.107 19.1478 14.6465L21.9516 17.4504C22.2392 17.738 22.3785 18.094 22.3623 18.5005C22.3462 18.907 22.1791 19.2509 21.8696 19.5148L18.5292 22.363C12.4126 22.4532 1.54411 11.7737 1.63707 5.4708L4.48524 2.13039C4.74919 1.82083 5.09302 1.65381 5.49952 1.63764C5.90607 1.62151 6.26204 1.76073 6.54966 2.0484L9.35344 4.85219C9.89302 5.39172 9.90319 6.26547 9.37636 6.81747L7.60125 8.67747ZM13.3738 3.0648C15.3211 3.0648 17.084 3.85408 18.3601 5.13011C19.6361 6.40619 20.4254 8.16906 20.4254 10.1163C20.4254 10.427 20.6772 10.6788 20.9879 10.6788C21.2985 10.6788 21.5504 10.427 21.5504 10.1163C21.5504 7.85851 20.6351 5.81439 19.1555 4.33469C17.6758 2.85498 15.6316 1.93975 13.3738 1.93975C13.0632 1.93975 12.8113 2.19161 12.8113 2.50225C12.8113 2.81289 13.0631 3.0648 13.3738 3.0648ZM18.899 10.1163C18.899 8.59065 18.2806 7.20934 17.2807 6.20945C16.2808 5.20956 14.8995 4.59109 13.3738 4.59109C13.0631 4.59109 12.8113 4.84295 12.8113 5.15359C12.8113 5.46423 13.0631 5.71609 13.3738 5.71609C14.5889 5.71609 15.689 6.20861 16.4852 7.00483C17.2815 7.80109 17.774 8.90115 17.774 10.1163C17.774 10.4269 18.0258 10.6788 18.3365 10.6788C18.6472 10.6789 18.899 10.427 18.899 10.1163ZM16.2477 10.1163C16.2477 9.32284 15.926 8.60434 15.4059 8.08426C14.8858 7.56419 14.1673 7.24248 13.3738 7.24248C13.0632 7.24248 12.8113 7.49434 12.8113 7.80498C12.8113 8.11562 13.0632 8.36748 13.3738 8.36748C13.8568 8.36748 14.2941 8.56323 14.6105 8.87964C14.927 9.19609 15.1227 9.63334 15.1227 10.1163C15.1227 10.427 15.3745 10.6788 15.6852 10.6788C15.9958 10.6789 16.2477 10.427 16.2477 10.1163Z" fill="#E54B21"/>
</svg>
