<svg xmlns="http://www.w3.org/2000/svg" xmlns:xlink="http://www.w3.org/1999/xlink" width="61" height="61" viewBox="0 0 61 61">
  <defs>
    <clipPath id="clip-path">
      <circle id="Ellipse_47" data-name="Ellipse 47" cx="30.5" cy="30.5" r="30.5" transform="translate(-18702 -9057)" fill="none" stroke="#707070" stroke-width="1"/>
    </clipPath>
  </defs>
  <g id="Mask_Group_122" data-name="Mask Group 122" transform="translate(18702 9057)" clip-path="url(#clip-path)">
    <g id="_059---Tap" data-name="059---Tap" transform="translate(-18691 -9045.999)">
      <path id="Path_22180" data-name="Path 22180" d="M13.165,38.369H.71a.711.711,0,0,0,0,1.421H13.165a.711.711,0,0,0,0-1.421Z" fill="#fff"/>
      <path id="Path_22181" data-name="Path 22181" d="M12.621,19.9V11.369H1.252v25.58H12.621Z" fill="#fff"/>
      <path id="Path_22182" data-name="Path 22182" d="M12.621,6.395a3.557,3.557,0,0,1,3.553-3.553H31.095a1.421,1.421,0,0,0,1.421-1.5A1.506,1.506,0,0,0,30.974,0H4.8A3.557,3.557,0,0,0,1.252,3.553V9.948H12.621Z" fill="#fff"/>
      <path id="Path_22183" data-name="Path 22183" d="M38.911,17.053A3.557,3.557,0,0,0,35.359,13.5H14.042v5.684H38.911Z" fill="#fff"/>
      <path id="Path_22184" data-name="Path 22184" d="M31.806,22.382H37.49a.711.711,0,0,0,.71-.711V20.606H31.1v1.066A.711.711,0,0,0,31.806,22.382Z" fill="#fff"/>
      <path id="Path_22185" data-name="Path 22185" d="M34.648,39.79a4.268,4.268,0,0,1-4.263-4.263c0-3.143,3.038-6.835,4.263-8.2,1.225,1.361,4.263,5.054,4.263,8.2A4.268,4.268,0,0,1,34.648,39.79Z" fill="#fff"/>
    </g>
  </g>
</svg>
