<svg height="512" viewBox="0 0 24 24" width="512" xmlns="http://www.w3.org/2000/svg"><g id="Layer_2" data-name="Layer 2"><path d="m22.7832 9.70215-1.873-1.874a1.78788 1.78788 0 0 0 -2.0977-.28225 1.75026 1.75026 0 0 1 -2.35742-2.35839 1.79066 1.79066 0 0 0 -.2832-2.09767l-1.874-1.873a1.75291 1.75291 0 0 0 -2.47461 0l-10.60647 10.6064a1.75113 1.75113 0 0 0 0 2.47461l1.873 1.874a1.78767 1.78767 0 0 0 2.09766.28222 1.75027 1.75027 0 0 1 2.35742 2.35841 1.79062 1.79062 0 0 0 .28321 2.09765l1.874 1.873a1.75172 1.75172 0 0 0 2.47461 0l10.6065-10.60637a1.75113 1.75113 0 0 0 0-2.47461zm-13.61157 2.59076a1 1 0 1 1 1-1 1.00005 1.00005 0 0 1 -1 1zm3.57837 2.70709a.75.75 0 0 1 -1.5 0v-6a.75.75 0 0 1 1.5 0zm2.07837-1.29291a1 1 0 1 1 1-1 1 1 0 0 1 -1 1z"/></g></svg>