<svg width="57" height="89" viewBox="0 0 57 89" fill="none" xmlns="http://www.w3.org/2000/svg">
<path d="M16.4798 21.24L17.5598 22.05C15.6398 24.84 12.7298 27.3 9.24984 27.3C6.81984 27.3 5.13984 26.1 4.38984 23.64C4.83984 23.16 5.52984 22.29 6.24984 21.24C7.38984 19.62 8.64984 17.67 9.78984 15.72H12.7598C12.1898 16.41 11.8898 17.79 12.9398 20.07C13.7798 21.93 13.9598 23.25 13.4498 24.24C14.5598 23.61 15.5198 22.62 16.4798 21.24ZM8.01984 24.27C9.33984 24.27 10.0298 22.92 9.51984 21.39C9.30984 20.73 9.12984 20.1 9.03984 19.5C8.52984 20.37 7.92984 21.24 7.35984 22.08C7.02984 22.53 6.69984 22.95 6.39984 23.31C6.69984 23.91 7.23984 24.27 8.01984 24.27ZM24.7209 21.24L25.8009 22.05C23.8209 24.9 20.6709 27.3 17.9109 27.3C15.8109 27.3 15.1209 25.89 15.9009 23.55L17.6409 18.6H16.2309L16.9509 16.5H18.3609L19.8009 12.36H23.7909L22.3509 16.5H24.7809L24.0609 18.6H21.6309L20.0109 23.31C19.7409 24 20.0109 24.27 20.4609 24.27C21.5409 24.27 23.4009 23.13 24.7209 21.24ZM35.7246 21.24L36.8046 22.08C34.9146 24.75 31.7946 27.33 28.2546 27.33C24.5946 27.33 23.0046 24.45 24.1746 21.12C25.1646 18.3 27.7146 16.23 31.0746 16.23C33.4146 16.23 34.5246 17.88 33.9246 19.62C33.3246 21.36 31.1346 22.95 28.1946 23.61C28.5846 24.15 29.3046 24.48 30.3246 24.48C32.2446 24.48 34.3146 23.22 35.7246 21.24ZM30.5646 18.57C29.5746 18.57 28.4346 19.86 27.9846 21.21C27.8946 21.42 27.8346 21.63 27.8046 21.84C31.4046 21.06 31.7946 18.57 30.5646 18.57ZM44.1673 16.2C46.8673 16.2 47.9773 19.08 46.8973 22.29C45.8773 25.26 43.6873 27.3 41.2273 27.3C39.8173 27.3 38.7373 26.82 38.2573 25.68L35.8273 32.7H31.8373L37.4173 16.5H41.4073L41.0473 17.58C41.9473 16.77 42.9973 16.2 44.1673 16.2ZM43.1473 21.57C43.7173 19.83 43.3273 18.66 42.2173 18.66C41.4973 18.66 40.8373 19.08 40.2673 19.83L39.0373 23.37C39.2473 23.97 39.6673 24.27 40.3273 24.27C41.5573 24.27 42.6673 23.1 43.1473 21.57Z" fill="#001D34"/>
<path d="M12.46 86.2044C3.85 86.2044 1.12 80.1844 1.12 61.3544C1.12 42.5244 3.85 36.5044 12.46 36.5044C21 36.5044 23.73 42.5244 23.73 61.3544C23.73 80.1844 21 86.2044 12.46 86.2044ZM12.46 78.0844C14.14 78.0844 14.42 75.3544 14.42 61.3544C14.42 47.3544 14.14 44.6244 12.46 44.6244C10.71 44.6244 10.43 47.3544 10.43 61.3544C10.43 75.3544 10.71 78.0844 12.46 78.0844ZM39.0928 85.5044V77.5244H27.1928V70.1744L38.4628 37.2044H48.1228V69.4744H51.2028V77.5244H48.1228V85.5044H39.0928ZM35.8728 69.4744H39.3028L40.4228 51.7644H40.2828L35.8728 69.4744Z" fill="#E54B21"/>
</svg>
